<?xml version="1.0" encoding="utf-8"?>
<!-- Generator: Adobe Illustrator 26.0.2, SVG Export Plug-In . SVG Version: 6.00 Build 0)  -->
<svg version="1.1" id="Layer_1" xmlns="http://www.w3.org/2000/svg" xmlns:xlink="http://www.w3.org/1999/xlink" x="0px" y="0px"
	 viewBox="0 0 196.5 196.5" style="enable-background:new 0 0 196.5 196.5;" xml:space="preserve">
<style type="text/css">
	.st0{fill:#FFFFFF;}
</style>
<path class="st0" d="M166.8,0H29.7C13.3,0,0,13.3,0,29.6v137.2c0,16.4,13.3,29.7,29.7,29.7h137.2c16.4,0,29.6-13.3,29.6-29.7V29.6
	C196.5,13.3,183.2,0,166.8,0z M35.1,64.3c0-11.2,9.1-20.2,20.2-20.2s20.2,9.1,20.2,20.2c0,11.2-9.1,20.2-20.2,20.2
	S35.1,75.5,35.1,64.3z M71.5,121.5c-5.2,0-9.4-4.2-9.4-9.4c0-5.2,4.2-9.4,9.4-9.4s9.4,4.2,9.4,9.4C80.8,117.3,76.6,121.5,71.5,121.5
	z M115.4,94.9c-6.1,0-11-4.9-11-11c0-6.1,4.9-11,11-11c6.1,0,11,4.9,11,11C126.4,90,121.5,94.9,115.4,94.9z"/>
</svg>
